<svg width="1400" height="700" viewBox="0 0 1400 700" xmlns="http://www.w3.org/2000/svg">
  <defs>
    <filter id="shadow_glow" x="-20%" y="-20%" width="140%" height="140%">
      <feGaussianBlur stdDeviation="2" result="blur" />
      <feComposite in="SourceGraphic" in2="blur" operator="over" />
    </filter>
    
    <clipPath id="clip_node_a">
      <rect width="200" height="85" rx="10" />
    </clipPath>
    <clipPath id="clip_node_b">
      <rect width="200" height="95" rx="10" />
    </clipPath>
    
    <linearGradient id="grad_blue" x1="0%" y1="0%" x2="100%" y2="100%">
      <stop offset="0%" stop-color="#ffffff" />
      <stop offset="100%" stop-color="#f0f9ff" />
    </linearGradient>
    <linearGradient id="grad_purple" x1="0%" y1="0%" x2="100%" y2="100%">
      <stop offset="0%" stop-color="#ffffff" />
      <stop offset="100%" stop-color="#f5f3ff" />
    </linearGradient>

    <style>
      .bg-sub { fill: #f8fafc; stroke: #e2e8f0; stroke-width: 1; }
      .node-raw { fill: #ffffff; stroke: #0ea5e9; stroke-width: 2; }
      .node-calc { fill: #ffffff; stroke: #8b5cf6; stroke-width: 2; }
      .text-title { fill: #1e293b; font-family: 'Segoe UI', sans-serif; font-weight: bold; font-size: 16px; }
      .text-code { fill: #64748b; font-family: 'Courier New', monospace; font-size: 11px; }
      .flow-line { fill: none; stroke: #cbd5e1; stroke-width: 1.5; marker-end: url(#arrowhead); }
      .flow-line-active { stroke: #94a3b8; stroke-dasharray: 4; animation: dash 20s linear infinite; }
      @keyframes dash { to { stroke-dashoffset: -1000; } }
      
      .v-panel { stroke-width: 1.5; filter: drop-shadow(0 2px 4px rgba(0,0,0,0.05)); }
      .v-value { font-family: 'Segoe UI', Arial; font-weight: 800; font-size: 22px; fill: #1e293b; }
      .v-label { font-size: 13px; fill: #475569; font-weight: bold; }
      .sparkline { fill: none; stroke: #0ea5e9; stroke-width: 1.5; opacity: 0.6; }
      .title-bg { fill: #f5f3ff; }
    </style>
    
    <marker id="arrowhead" viewBox="0 0 10 10" refX="9" refY="5" markerUnits="strokeWidth" markerWidth="6" markerHeight="6" orient="auto">
      <path d="M 0 0 L 10 5 L 0 10 z" fill="#cbd5e1" />
    </marker>
  </defs>

  <rect width="1360" height="660" x="20" y="20" rx="15" class="bg-sub" />
  <text x="700" y="55" text-anchor="middle" class="text-title">虚拟影子引擎：全链路数据拓扑与增量计算流</text>

  <g id="logic-wires">
    <path id="wire_temp_to_unit" d="M 260 172 C 350 172, 400 210, 580 210" class="flow-line flow-line-active" />
    <path id="wire_press_to_eff" d="M 260 272 C 350 272, 400 360, 580 360" class="flow-line flow-line-active" />
    <path id="wire_volt_to_eff" d="M 260 372 C 350 372, 450 390, 580 395" class="flow-line flow-line-active" />
    <path id="wire_unit_to_vtemp" d="M 780 210 C 900 210, 950 195, 1020 195" class="flow-line" style="stroke: #8b5cf6;" />
    <path id="wire_eff_to_veff" d="M 780 380 C 900 380, 950 335, 1020 335" class="flow-line" style="stroke: #8b5cf6;" />
  </g>

  <g transform="translate(80, 140)">
    <text x="0" y="-25" class="text-title" style="font-size:13px; fill:#64748b;">[ 输入层 ]</text>
    <g transform="translate(0, 0)">
      <rect width="180" height="65" rx="8" class="node-raw" />
      <text x="15" y="25" class="v-label">温度传感器_01</text>
      <text x="15" y="48" class="text-code">ID: temp_01</text>
      <circle cx="160" cy="20" r="4" fill="#22c55e"><animate attributeName="opacity" values="1;0.3;1" dur="1.2s" repeatCount="indefinite" /></circle>
    </g>
    <g transform="translate(0, 100)">
      <rect width="180" height="65" rx="8" class="node-raw" />
      <text x="15" y="25" class="v-label">压力传感器_02</text>
      <text x="15" y="48" class="text-code">ID: press_02</text>
    </g>
    <g transform="translate(0, 200)">
      <rect width="180" height="65" rx="8" class="node-raw" />
      <text x="15" y="25" class="v-label">母线电压_03</text>
      <text x="15" y="48" class="text-code">ID: volt_03</text>
    </g>
  </g>

  <g transform="translate(480, 120)">
    <rect width="400" height="420" rx="12" fill="#ffffff" stroke="#cbd5e1" stroke-dasharray="6,4" fill-opacity="0.5" />
    <text x="200" y="-20" text-anchor="middle" class="text-title" style="font-size:13px; fill:#64748b;">[ 影子计算引擎 - DAG 拓扑 ]</text>

    <g transform="translate(100, 50)">
      <rect width="200" height="85" rx="10" class="node-calc" filter="url(#shadow_glow)"/>
      <g clip-path="url(#clip_node_a)">
        <rect width="200" height="26" class="title-bg" />
      </g>
      <text x="100" y="18" text-anchor="middle" style="font-size:11px; font-weight:bold; fill:#7c3aed">单位转换 (K to ℃)</text>
      <text x="100" y="58" text-anchor="middle" class="text-code" style="fill:#7c3aed">x - 273.15</text>
    </g>

    <g transform="translate(100, 220)">
      <rect width="200" height="95" rx="10" class="node-calc" />
      <g clip-path="url(#clip_node_b)">
        <rect width="200" height="26" class="title-bg" />
      </g>
      <text x="100" y="18" text-anchor="middle" style="font-size:11px; font-weight:bold; fill:#7c3aed">能效逻辑 (Aggregator)</text>
      <text x="100" y="62" text-anchor="middle" class="text-code" style="fill:#7c3aed">(P * V) / 0.85</text>
      <circle cx="0" cy="48" r="3" fill="#0ea5e9" />
      <circle cx="0" cy="82" r="3" fill="#0ea5e9" />
    </g>
  </g>

  <g transform="translate(1020, 140)">
    <text x="0" y="-25" class="text-title" style="font-size:13px; fill:#64748b;">[ 输出层 - 影子模型 ]</text>
    <g transform="translate(0, 0)">
      <rect width="260" height="110" rx="12" fill="url(#grad_blue)" stroke="#0ea5e9" class="v-panel" />
      <text x="15" y="30" class="v-label">标准环境温度 (℃)</text>
      <text x="15" y="65" class="v-value">25.4</text>
      <rect x="180" y="15" width="65" height="20" rx="10" fill="#dcfce7" />
      <text x="212" y="29" text-anchor="middle" style="fill:#166534; font-size:10px; font-weight:bold">● 实时</text>
      <path class="sparkline" d="M15 95 Q 40 80, 60 90 T 100 85 T 140 95 T 180 85 T 240 90" />
    </g>
    <g transform="translate(0, 140)">
      <rect width="260" height="110" rx="12" fill="url(#grad_purple)" stroke="#8b5cf6" class="v-panel" />
      <text x="15" y="30" class="v-label">综合能效 (%)</text>
      <text x="15" y="65" class="v-value">94.2</text>
      <rect x="130" y="55" width="110" height="6" rx="3" fill="#e2e8f0" />
      <rect x="130" y="55" width="98" height="6" rx="3" fill="#8b5cf6" />
    </g>
  </g>

  <circle r="3" fill="#0ea5e9"><animateMotion dur="3s" repeatCount="indefinite"><mpath href="#wire_temp_to_unit"/></animateMotion></circle>
  <circle r="3" fill="#0ea5e9"><animateMotion dur="3.5s" repeatCount="indefinite"><mpath href="#wire_press_to_eff"/></animateMotion></circle>
  <circle r="3" fill="#0ea5e9"><animateMotion dur="3.5s" begin="1s" repeatCount="indefinite"><mpath href="#wire_volt_to_eff"/></animateMotion></circle>
  <circle r="4" fill="#8b5cf6" filter="url(#shadow_glow)"><animateMotion dur="2s" begin="0.5s" repeatCount="indefinite"><mpath href="#wire_unit_to_vtemp"/></animateMotion></circle>
  <circle r="4" fill="#8b5cf6" filter="url(#shadow_glow)"><animateMotion dur="2s" begin="1.5s" repeatCount="indefinite"><mpath href="#wire_eff_to_veff"/></animateMotion></circle>
</svg>
